<svg width="148" height="202" viewBox="0 0 148 202" fill="none" xmlns="http://www.w3.org/2000/svg">
<path d="M145.001 90.1843C146.262 148.684 115.251 196.798 75.7357 197.65C36.2201 198.503 3.16355 151.77 1.90188 93.2705C0.640215 34.771 31.2133 4.41305 70.7289 3.56081C110.244 2.70857 143.739 31.6847 145.001 90.1843Z" fill="#936648"/>
<path d="M59.5 0.99999C54.5 0.499986 48 3.5 45.5 16C43 28.5 56.4999 130.985 64.4999 152.485C72.4999 173.985 79.5001 204.515 90 201C100.5 197.485 96.9999 182 95.9999 149.5C94.9999 117 80.5 30.05 76 16C71.5 1.95 64.5 1.49999 59.5 0.99999Z" fill="#D5A585"/>
<ellipse cx="8.38183" cy="9.5" rx="8.38183" ry="9.5" transform="matrix(-1 0 0 1 116.764 70)" fill="#3E2013"/>
<ellipse cx="8.38183" cy="9.5" rx="8.38183" ry="9.5" transform="matrix(-1 0 0 1 40.7637 85)" fill="#3E2013"/>
<path d="M38.2381 110.74C38.2381 110.74 45.2892 137.229 79.5 132.5C113.711 127.771 108.361 93.6491 108.361 93.6491L38.2381 110.74Z" fill="#3E2013"/>
</svg>
