<svg width="314" height="181" viewBox="0 0 314 181" fill="none" xmlns="http://www.w3.org/2000/svg">
<path d="M57.9999 41C37.5841 79.8298 61.3964 122.506 84.5332 148.5C90.2952 154.974 96.0153 160.413 101 164.5C126 185 247.5 186 270 164.5C292.5 143 324.002 82.0567 308.5 34C292.998 -14.0567 83.5001 -7.5 57.9999 41Z" fill="#DFCBBF" stroke="#DFCBBF"/>
<path d="M95 145C39.3686 127.701 17.0731 105.718 12.8793 96.889C9.98658 88.2638 8.21209 69.1902 24.2562 61.8982C40.3003 54.6062 53.2332 56.3379 57.6941 58.1152" stroke="#DFCBBF" stroke-width="20"/>
<ellipse cx="185.953" cy="45.3062" rx="98.5955" ry="19.2355" transform="rotate(-1.79019 185.953 45.3062)" fill="#936648"/>
<path d="M171.707 115.47C171.707 115.47 169.987 137.255 195.874 137.467C221.76 137.68 220.718 114.514 220.718 114.514L171.707 115.47Z" fill="#936648" stroke="#936648"/>
<path d="M128.023 87C128.666 96.9894 133.589 103.839 144.55 105.236C155.511 106.633 158.37 98.9167 161.75 91.2988" stroke="#936648" stroke-width="10" stroke-linecap="square"/>
<path d="M229 88.4249C231.311 98.1646 237.314 104.09 248.354 103.627C259.394 103.164 260.917 95.0773 262.97 87" stroke="#936648" stroke-width="10" stroke-linecap="square"/>
</svg>
