<svg width="363" height="232" viewBox="0 0 363 232" fill="none" xmlns="http://www.w3.org/2000/svg">
<path d="M228 211C228 211 263.5 181 272.5 150.5C281.5 120 278 107.5 272.5 88C267 68.5 247 47.5 234.5 42C222 36.5 114 42 102 52C90.0002 62 76.0002 72.5 66.5002 101.5C57.0002 130.5 61.5002 140 72.5002 165C83.5001 190 122.5 217.5 122.5 217.5L228 211Z" fill="#DFCBBF" stroke="#DFCBBF"/>
<circle cx="158" cy="12" r="12" fill="#CFB7A9"/>
<path d="M124.787 213.833C122.792 213.934 121.049 215.213 120.354 217.085L117.596 224.51C116.358 227.844 118.898 231.368 122.452 231.248L227.549 227.701C230.655 227.596 232.914 224.714 232.273 221.674L230.38 212.681C229.873 210.273 227.69 208.592 225.233 208.717L124.787 213.833Z" fill="#CFB7A9" stroke="#CFB7A9"/>
<path d="M103.018 49.8283C101.666 49.942 100.442 50.672 99.6985 51.8073V51.8073C97.6866 54.8811 100.095 58.9231 103.756 58.6164L225.903 48.3804C229.208 48.1035 231.046 44.4258 229.285 41.6159V41.6159C228.405 40.2115 226.814 39.4164 225.162 39.5553L103.018 49.8283Z" fill="#CFB7A9" stroke="#CFB7A9"/>
<path d="M222.366 41.7064C224.546 41.5312 226.36 39.9593 226.842 37.826L230.249 22.7727C230.993 19.4848 228.337 16.4178 224.976 16.6849L99.0135 26.6952C95.9635 26.9376 93.8445 29.838 94.5408 32.8173L97.9558 47.4302C98.5188 49.8392 100.759 51.4744 103.225 51.2763L222.366 41.7064Z" fill="#DFCBBF" stroke="#DFCBBF"/>
<path d="M69 94C74 81.5 80.6127 69.1448 97.5 55C97.5 55 92.7247 56.3577 85.7814 58.5C71.7445 71.7506 66.0563 79.9067 60.5 95.9797C65.2004 94.6599 69 94 69 94Z" fill="#CFB7A9"/>
<path fill-rule="evenodd" clip-rule="evenodd" d="M85.7814 58.5C71.7445 71.7506 66.0563 79.9067 60.5 95.9797C56.0516 97.2288 50.3485 99.0689 45 101.5C34 106.5 29.5 112 25 119.5L24.829 119.939C21.4376 128.65 19.664 133.205 29.5 145.5C39.5 158 66 164 78 164C81.479 164 82.7403 163.736 86 163.5C86 163.5 100.5 164.5 100.5 167.5C100.5 170.5 86.5 171.5 87 173.5C87.5 175.5 104 172.5 105 176.5C106 180.5 89.5 180.5 89 182.5C88.5 184.5 103 183.712 103 187.5C103 191.288 86 192.367 86 192.367C80.7207 192.5 75.5144 192.5 71.5 192.5C58.5 192.5 18.5 177.5 12 166C11.6966 165.463 11.3976 164.935 11.1031 164.415C5.08863 153.794 0.976664 146.533 0.5 137C-4.47035e-08 127 3.5 116 11 102.5C16.5365 92.5343 21.2555 89.1079 27.772 84.3764C30.083 82.6984 32.6201 80.8562 35.5 78.5C43.134 72.254 70.0338 63.3589 85.7814 58.5Z" fill="#DFCBBF"/>
<path d="M110 188C110 183.5 100 182 100 182C100 182 110 181.5 110 176.5C110 171.5 100 172 100 172C100 172 108 171 105 166C102.87 162.45 93.9838 162.921 86 163.5C86 163.5 100.5 164.5 100.5 167.5C100.5 170.5 86.5 171.5 87 173.5C87.5 175.5 104 172.5 105 176.5C106 180.5 89.5 180.5 89 182.5C88.5 184.5 103 183.712 103 187.5C103 191.288 86 192.367 86 192.367C97.8171 192.071 110 191.11 110 188Z" fill="#CFB7A9"/>
<path d="M262 151.5C262 151.5 292.5 153 314.5 142C336.5 131 350 91.5 356.5 79C363 66.5 364 41.1364 360.5 40.5C357 39.8636 354.5 51 354.5 51C354.5 51 354.5 39 351 39C347.5 39 346.5 51 346.5 51C346.5 51 345 39 341 39C337 39 337.5 53.5 335.5 60.5C333.5 67.5 315.5 92.5 306 99C296.5 105.5 270.5 106 270.5 106C269 125 265 137 262 151.5Z" fill="#DFCBBF" stroke="#DFCBBF"/>
<ellipse cx="137.5" cy="119.5" rx="8.5" ry="9.5" fill="#856A58"/>
<ellipse cx="205.5" cy="114.5" rx="8.5" ry="9.5" fill="#856A58"/>
<path d="M209.408 131.549C209.408 131.549 209.304 170.571 174.299 171.686C139.294 172.802 141.396 136.731 141.396 136.731L209.408 131.549Z" fill="#856A58" stroke="#856A58"/>
</svg>
